<svg width="34" height="30" viewBox="0 0 34 30" fill="none" xmlns="http://www.w3.org/2000/svg">
<path d="M2.75 13C1.64543 13 0.75 13.8954 0.75 15C0.75 16.1046 1.64543 17 2.75 17V13ZM32.6642 16.4142C33.4453 15.6332 33.4453 14.3668 32.6642 13.5858L19.9363 0.857864C19.1552 0.0768156 17.8889 0.0768156 17.1079 0.857864C16.3268 1.63891 16.3268 2.90524 17.1079 3.68629L28.4216 15L17.1079 26.3137C16.3268 27.0948 16.3268 28.3611 17.1079 29.1421C17.8889 29.9232 19.1552 29.9232 19.9363 29.1421L32.6642 16.4142ZM2.75 17H31.25V13H2.75V17Z" fill="white"/>
</svg>
