<svg width="26" height="26" viewBox="0 0 26 26" fill="none" xmlns="http://www.w3.org/2000/svg">
<path fill-rule="evenodd" clip-rule="evenodd" d="M0 13C0 5.82372 5.82372 0 13 0C13.5523 0 14 0.447715 14 1C14 1.55228 13.5523 2 13 2C6.92828 2 2 6.92828 2 13C2 19.0717 6.92828 24 13 24C19.0717 24 24 19.0717 24 13C24 12.4477 24.4477 12 25 12C25.5523 12 26 12.4477 26 13C26 20.1763 20.1763 26 13 26C5.82372 26 0 20.1763 0 13ZM23.8918 3.87795C24.2906 4.25999 24.3042 4.89301 23.9222 5.29184L13.7236 15.9388C12.9367 16.7602 11.6242 16.7609 10.8365 15.9404L8.67868 13.6926C8.2962 13.2942 8.30912 12.6612 8.70753 12.2787C9.10594 11.8962 9.73898 11.9092 10.1215 12.3076L12.2793 14.5553L22.4779 3.90836C22.86 3.50953 23.493 3.49591 23.8918 3.87795Z" fill="#418062"/>
</svg>
