<svg width="161" height="40" viewBox="0 0 161 40" fill="none" xmlns="http://www.w3.org/2000/svg">
<path d="M18.2645 33.2448C19.1319 33.3444 19.8421 34.0497 19.8421 34.9333V38.4C19.8421 39.2837 19.1331 40.007 18.2625 39.9412C13.6002 39.5892 9.56884 37.6551 6.1683 34.1389C2.38943 30.2315 0.5 25.5185 0.5 20C0.5 14.4815 2.38943 9.76852 6.1683 5.86111C9.56884 2.3449 13.6002 0.410781 18.2625 0.0587485C19.1331 -0.00698345 19.8421 0.716344 19.8421 1.6V5.06667C19.8421 5.95032 19.1319 6.65553 18.2645 6.75581C15.3713 7.0903 12.8526 8.36614 10.7083 10.5833C8.20101 13.1759 6.94736 16.3148 6.94736 20C6.94736 23.6852 8.20101 26.8333 10.7083 29.4444C12.8526 31.6459 15.3713 32.9127 18.2645 33.2448Z" fill="#418062"/>
<path d="M42.4078 40C37.0708 40 32.5129 38.0463 28.734 34.1389C24.9552 30.2315 23.0657 25.5185 23.0657 20C23.0657 14.4815 24.9552 9.76852 28.734 5.86111C32.5129 1.9537 37.0708 0 42.4078 0C47.7448 0 52.3027 1.9537 56.0816 5.86111C59.8604 9.76852 61.7499 14.4815 61.7499 20C61.7499 25.5185 59.8604 30.2315 56.0816 34.1389C52.3027 38.0463 47.7448 40 42.4078 40ZM42.4078 33.3333C45.9718 33.3333 49.0074 32.037 51.5147 29.4444C54.0399 26.8333 55.3025 23.6852 55.3025 20C55.3025 16.3148 54.0399 13.1759 51.5147 10.5833C49.0074 7.97222 45.9718 6.66667 42.4078 6.66667C38.8439 6.66667 35.7993 7.97222 33.2741 10.5833C30.7668 13.1759 29.5131 16.3148 29.5131 20C29.5131 23.6852 30.7668 26.8333 33.2741 29.4444C35.7993 32.037 38.8439 33.3333 42.4078 33.3333Z" fill="#418062"/>
<path d="M82.816 7.74029C83.1316 7.20706 82.7521 6.52919 82.1381 6.52919H66.0032C65.1302 6.52919 64.4225 5.81285 64.4225 4.92919V1.6C64.4225 0.716345 65.1302 0 66.0032 0H91.6199C93.4538 0 94.5934 2.01731 93.6633 3.61723L77.0085 32.2651C76.6985 32.7984 77.0784 33.4708 77.6897 33.4708H93.4887C94.3617 33.4708 95.0694 34.1872 95.0694 35.0708V38.4C95.0694 39.2837 94.3617 40 93.4887 40H67.9097C66.0676 40 64.9291 37.9664 65.8758 36.3667L82.816 7.74029Z" fill="#418062"/>
<path d="M147.253 17.0305C147.486 17.774 148.526 17.774 148.759 17.0305L153.757 1.11525C153.966 0.451096 154.575 0 155.264 0H159.314C160.116 0 160.687 0.790047 160.443 1.56402L148.706 38.8854C148.497 39.5492 147.888 40 147.2 40H143.702C142.637 40 141.876 38.9543 142.193 37.9243L144.396 30.7628C144.541 30.2915 144.539 29.7864 144.39 29.3164L135.6 1.56641C135.354 0.791958 135.925 0 136.729 0H140.748C141.436 0 142.046 0.451098 142.254 1.11526L147.253 17.0305Z" fill="#418062"/>
<path d="M118.516 7.74029C118.832 7.20706 118.452 6.52919 117.838 6.52919H101.703C100.83 6.52919 100.123 5.81285 100.123 4.92919V1.6C100.123 0.716345 100.83 0 101.703 0H127.32C129.154 0 130.294 2.01731 129.364 3.61723L112.709 32.2651C112.399 32.7984 112.779 33.4708 113.39 33.4708H129.189C130.062 33.4708 130.77 34.1872 130.77 35.0708V38.4C130.77 39.2837 130.062 40 129.189 40H103.61C101.768 40 100.629 37.9664 101.576 36.3667L118.516 7.74029Z" fill="#418062"/>
</svg>
