<svg width="78" height="78" viewBox="0 0 78 78" fill="none" xmlns="http://www.w3.org/2000/svg">
<path d="M50.2081 40.1008L45.8209 44.502L50.2081 48.9032L44.3584 54.7714L65.3199 75.7994C68.2448 78.7335 72.632 78.7335 75.5569 75.7994C78.4818 72.8653 78.4818 68.4641 75.5569 65.5299L50.2081 40.1008ZM69.2197 73.3543C67.2698 73.3543 65.3199 71.8872 65.3199 69.4421C65.3199 67.486 66.7823 65.5299 69.2197 65.5299C71.6571 65.5299 73.1195 66.997 73.1195 69.4421C73.1195 71.8872 71.6571 73.3543 69.2197 73.3543Z" fill="#FF7180"/>
<path d="M17.5491 39.1218L21.9364 36.1876L29.2486 27.8743L33.6359 32.2755L38.0231 27.8743L37.5357 27.3852C38.5106 24.9401 38.9981 22.495 38.9981 19.5609C38.9981 8.8024 30.2235 0 19.499 0C16.5742 0 14.1368 0.489022 11.6994 1.46707L25.8362 15.6487L15.5992 25.9182L1.46243 11.7365C0.487476 14.1816 0 16.6268 0 19.5609C0 29.8304 7.79962 37.6547 17.5491 39.1218Z" fill="#FF7180"/>
<path d="M39.0019 52.8149L43.3892 48.9027L39.0019 44.5015L66.788 16.6272L72.6377 14.6711L78 3.91266L74.5877 0.4895L63.3757 5.37972L60.9383 11.248L33.6397 39.1223L29.2524 34.7211L25.3526 39.1223C25.3526 39.1223 29.2524 42.0564 24.8651 46.4576C22.4277 48.9027 18.5279 45.9686 11.2158 53.3039C8.77838 55.749 0.978761 63.5734 0.978761 63.5734C0.978761 63.5734 -1.9461 68.4636 3.90362 74.3319C9.75333 80.2001 14.6281 77.266 14.6281 77.266C14.6281 77.266 22.4277 69.4416 24.8651 66.9965C31.6898 60.1502 29.2524 55.749 31.2023 53.7929C35.5896 49.3917 39.0019 52.8149 39.0019 52.8149Z" fill="#FF7180"/>
</svg>
