<svg width="26" height="26" viewBox="0 0 26 26" fill="none" xmlns="http://www.w3.org/2000/svg">
<path d="M6.88 23.32L7.3945 22.4625C7.15716 22.3201 6.87141 22.2824 6.60528 22.3585L6.88 23.32ZM2.56 19L3.52782 19.2516C3.59099 19.0087 3.56048 18.7509 3.44235 18.5294L2.56 19ZM1.22651 24.1288L0.258691 23.8772L1.22651 24.1288ZM1.86554 24.7527L1.59081 23.7912L1.86554 24.7527ZM17.8971 17.5576L18.6371 18.2301L18.6376 18.2297L17.8971 17.5576ZM17.0101 18.1948L16.6314 17.2693L16.626 17.2715L17.0101 18.1948ZM12.3321 16.9366L11.7429 17.7445L11.7441 17.7455L12.3321 16.9366ZM10.5583 15.4246L9.84824 16.1288L9.85511 16.1356L10.5583 15.4246ZM9.04939 13.6588L8.23799 14.2433L8.24139 14.248L9.04939 13.6588ZM7.9894 11.8174L7.06797 12.206L7.06921 12.2089L7.9894 11.8174ZM7.79471 9.0094L8.72301 9.38128L8.72509 9.376L7.79471 9.0094ZM8.41665 8.1076L9.10232 8.83551L9.11005 8.82823L9.11763 8.82078L8.41665 8.1076ZM9.97959 7.6972L9.54739 8.59898L9.55419 8.60224L9.56105 8.6054L9.97959 7.6972ZM10.3419 7.9996L9.52009 8.56943L9.52676 8.57882L10.3419 7.9996ZM11.5966 9.7654L10.7814 10.3446L10.7855 10.3503L11.5966 9.7654ZM11.8129 10.1434L10.8876 10.5225L10.8907 10.5302L10.894 10.5378L11.8129 10.1434ZM11.7751 10.8562L10.9212 10.3357L10.9128 10.3495L10.9048 10.3636L11.7751 10.8562ZM11.4722 11.2396L10.7657 10.532L10.7588 10.5388L10.7521 10.5458L11.4722 11.2396ZM11.0612 11.6662L11.7678 12.3738L11.7746 12.367L11.7813 12.36L11.0612 11.6662ZM10.9909 12.0064L10.0209 12.2493L10.0347 12.3046L10.0548 12.358L10.9909 12.0064ZM11.0342 12.1144L10.0856 12.4311L10.1139 12.5156L10.1566 12.5938L11.0342 12.1144ZM11.5371 12.8056L10.7742 13.4521L10.7814 13.4605L11.5371 12.8056ZM12.3213 13.6588L11.608 14.3597L11.6146 14.3664L11.6214 14.373L12.3213 13.6588ZM13.1812 14.4526L12.5345 15.2154L12.5358 15.2165L13.1812 14.4526ZM13.8788 14.9494L13.4115 15.8335L13.4585 15.8583L13.5079 15.8781L13.8788 14.9494ZM13.9762 14.9926L13.5828 15.912L13.6039 15.921L13.6255 15.9291L13.9762 14.9926ZM14.3331 14.9224L13.6312 14.2101L13.6265 14.2148L14.3331 14.9224ZM14.7441 14.5174L15.446 15.2297L15.4507 15.225L14.7441 14.5174ZM15.1335 14.215L15.5955 15.1019L15.6248 15.0867L15.6529 15.0695L15.1335 14.215ZM16.226 14.3824L16.8043 13.5666L16.796 13.5608L16.7877 13.5551L16.226 14.3824ZM18.016 15.6514L17.4377 16.4673L17.4474 16.474L18.016 15.6514ZM18.3135 15.997L19.2418 15.6251L19.2354 15.6093L19.2286 15.5938L18.3135 15.997ZM6.3655 24.1775C8.3227 25.3518 10.6608 26 13 26V24C11.0192 24 9.0373 23.4482 7.3945 22.4625L6.3655 24.1775ZM13 26C20.1523 26 26 20.1523 26 13H24C24 19.0477 19.0477 24 13 24V26ZM26 13C26 5.84772 20.1523 0 13 0V2C19.0477 2 24 6.95229 24 13H26ZM13 0C5.84772 0 0 5.84772 0 13H2C2 6.95229 6.95229 2 13 2V0ZM0 13C0 15.3473 0.652105 17.5477 1.67765 19.4706L3.44235 18.5294C2.5479 16.8523 2 14.9727 2 13H0ZM1.59218 18.7484L0.258691 23.8772L2.19434 24.3804L3.52782 19.2516L1.59218 18.7484ZM2.14026 25.7142L7.15472 24.2815L6.60528 22.3585L1.59081 23.7912L2.14026 25.7142ZM0.258691 23.8772C-0.0361764 25.0113 1.01354 26.0361 2.14026 25.7142L1.59081 23.7912C1.95222 23.6879 2.28892 24.0167 2.19434 24.3804L0.258691 23.8772ZM17.4 16.4182C17.4 16.4624 17.3906 16.5164 17.3608 16.5793L19.1688 17.4343C19.323 17.1084 19.4 16.7628 19.4 16.4182H17.4ZM17.3608 16.5793C17.3086 16.6896 17.2435 16.7898 17.1566 16.8855L18.6376 18.2297C18.8643 17.9798 19.0371 17.7128 19.1688 17.4343L17.3608 16.5793ZM17.157 16.8851C16.9802 17.0796 16.808 17.197 16.6314 17.2693L17.3889 19.1203C17.8721 18.9226 18.284 18.6188 18.6371 18.2301L17.157 16.8851ZM16.626 17.2715C16.4279 17.354 16.2074 17.4 15.9556 17.4V19.4C16.4609 19.4 16.9434 19.3057 17.3943 19.1181L16.626 17.2715ZM15.9556 17.4C15.5618 17.4 15.1056 17.3075 14.584 17.0856L13.801 18.926C14.5233 19.2333 15.246 19.4 15.9556 19.4V17.4ZM14.584 17.0856C14.0386 16.8536 13.4821 16.5363 12.9201 16.1278L11.7441 17.7455C12.4152 18.2333 13.1025 18.6288 13.801 18.926L14.584 17.0856ZM12.9214 16.1287C12.3407 15.7051 11.7892 15.2354 11.2614 14.7136L9.85511 16.1356C10.4523 16.7262 11.0797 17.2609 11.7429 17.7445L12.9214 16.1287ZM11.2682 14.7204C10.7454 14.1932 10.2754 13.6429 9.8574 13.0696L8.24139 14.248C8.72109 14.9059 9.25706 15.5328 9.84827 16.1288L11.2682 14.7204ZM9.86078 13.0743C9.45256 12.5076 9.13523 11.9563 8.9096 11.4259L7.06921 12.2089C7.36275 12.8989 7.7593 13.5788 8.23801 14.2433L9.86078 13.0743ZM8.91083 11.4288C8.69344 10.9133 8.60002 10.457 8.60002 10.0516H6.60002C6.60002 10.7695 6.76619 11.4903 7.06798 12.206L8.91083 11.4288ZM8.60002 10.0516C8.60002 9.8031 8.6437 9.57921 8.723 9.38127L6.86643 8.63753C6.68613 9.0876 6.60002 9.5657 6.60002 10.0516H8.60002ZM8.72509 9.376C8.79759 9.19201 8.91607 9.01095 9.10232 8.83551L7.73097 7.37969C7.34396 7.74425 7.05142 8.168 6.86433 8.6428L8.72509 9.376ZM9.11763 8.82078C9.31267 8.62907 9.44998 8.6 9.54153 8.6V6.6C8.83269 6.6 8.21286 6.90573 7.71566 7.39442L9.11763 8.82078ZM9.54153 8.6C9.54627 8.6 9.54995 8.60054 9.55192 8.60098C9.55387 8.6014 9.55223 8.6013 9.54739 8.59898L10.4118 6.79542C10.1331 6.66186 9.83276 6.6 9.54153 6.6V8.6ZM9.56105 8.6054C9.56001 8.60492 9.55256 8.60125 9.54245 8.59294C9.53196 8.58433 9.52432 8.57542 9.52014 8.56939L11.1637 7.42981C10.9563 7.13061 10.6872 6.9222 10.3981 6.789L9.56105 8.6054ZM9.52676 8.57882L10.7814 10.3446L12.4118 9.18618L11.1571 7.42038L9.52676 8.57882ZM10.7855 10.3503C10.8466 10.435 10.8745 10.4905 10.8876 10.5225L12.7383 9.76428C12.654 9.55866 12.5414 9.36583 12.4077 9.18052L10.7855 10.3503ZM10.894 10.5378C10.8975 10.5459 10.8968 10.5463 10.8949 10.5382C10.8932 10.5305 10.8887 10.5082 10.8887 10.4728H12.8887C12.8887 10.2023 12.8196 9.9534 12.7319 9.74898L10.894 10.5378ZM10.8887 10.4728C10.8887 10.4008 10.9112 10.3522 10.9212 10.3357L12.6289 11.3767C12.7904 11.1118 12.8887 10.804 12.8887 10.4728H10.8887ZM10.9048 10.3636C10.8905 10.3889 10.8501 10.4476 10.7657 10.532L12.1788 11.9472C12.3539 11.7724 12.5191 11.5719 12.6453 11.3488L10.9048 10.3636ZM10.7521 10.5458L10.3411 10.9724L11.7813 12.36L12.1924 11.9334L10.7521 10.5458ZM10.3546 10.9586C10.0919 11.2209 9.97468 11.5528 9.97468 11.8822H11.9747C11.9747 11.9449 11.9645 12.0338 11.9251 12.1329C11.885 12.234 11.8269 12.3148 11.7678 12.3738L10.3546 10.9586ZM9.97468 11.8822C9.97468 12.0203 9.99357 12.1403 10.0209 12.2493L11.961 11.7635C11.9628 11.7709 11.9668 11.7881 11.9699 11.8119C11.9732 11.8366 11.9747 11.8606 11.9747 11.8822H9.97468ZM10.0548 12.358C10.0716 12.4029 10.0887 12.4424 10.0938 12.4546C10.0974 12.463 10.0972 12.4628 10.0962 12.4602C10.0949 12.4568 10.0907 12.4463 10.0856 12.4311L11.9827 11.7977C11.9632 11.7393 11.9416 11.6892 11.9353 11.6743C11.9256 11.6514 11.9264 11.6531 11.9271 11.6548L10.0548 12.358ZM10.1566 12.5938C10.3013 12.8587 10.5186 13.1504 10.7742 13.4521L12.3 12.1591C12.0798 11.8992 11.9618 11.7265 11.9118 11.635L10.1566 12.5938ZM10.7814 13.4605C11.035 13.7531 11.3089 14.0553 11.608 14.3597L13.0346 12.9579C12.7713 12.6899 12.526 12.4197 12.2928 12.1507L10.7814 13.4605ZM11.6214 14.373C11.9215 14.6671 12.2219 14.9503 12.5345 15.2154L13.8279 13.6898C13.5672 13.4689 13.3052 13.2229 13.0212 12.9446L11.6214 14.373ZM12.5358 15.2165C12.8467 15.4791 13.1404 15.6902 13.4115 15.8335L14.3462 14.0653C14.2495 14.0142 14.0782 13.9013 13.8266 13.6887L12.5358 15.2165ZM13.5079 15.8781C13.4994 15.8747 13.4945 15.8725 13.4955 15.8729C13.4966 15.8734 13.4993 15.8746 13.5073 15.8783C13.52 15.8841 13.55 15.8979 13.5828 15.912L14.3696 14.0732C14.3645 14.0711 14.3594 14.0687 14.3396 14.0597C14.3314 14.0559 14.3185 14.05 14.3048 14.044C14.2909 14.0378 14.2718 14.0295 14.2497 14.0207L13.5079 15.8781ZM13.6255 15.9291C13.8148 16 13.9854 16.0142 14.1114 16.0142V14.0142C14.14 14.0142 14.2241 14.0176 14.3268 14.0561L13.6255 15.9291ZM14.1114 16.0142C14.4822 16.0142 14.8028 15.8666 15.0397 15.63L13.6265 14.2148C13.6735 14.1679 13.7452 14.112 13.8431 14.0703C13.9419 14.0283 14.0361 14.0142 14.1114 14.0142V16.0142ZM15.035 15.6347L15.446 15.2297L14.0423 13.8051L13.6312 14.2101L15.035 15.6347ZM15.4507 15.225C15.4954 15.1804 15.5312 15.1493 15.558 15.1283C15.5851 15.1072 15.5976 15.1008 15.5955 15.1019L14.6715 13.3281C14.4246 13.4568 14.2132 13.6343 14.0376 13.8098L15.4507 15.225ZM15.6529 15.0695C15.6513 15.0705 15.6353 15.0799 15.6065 15.0885C15.5767 15.0973 15.5455 15.1016 15.5175 15.1016V13.1016C15.1776 13.1016 14.8756 13.2016 14.6141 13.3605L15.6529 15.0695ZM15.5175 15.1016C15.4978 15.1016 15.4818 15.0994 15.4713 15.0972C15.4612 15.0951 15.4601 15.0938 15.4692 15.0975L16.2255 13.2461C16.003 13.1551 15.7666 13.1016 15.5175 13.1016V15.1016ZM15.4692 15.0975C15.5043 15.1119 15.5662 15.1431 15.6642 15.2097L16.7877 13.5551C16.6153 13.4381 16.4284 13.3289 16.2255 13.2461L15.4692 15.0975ZM15.6476 15.1982L17.4377 16.4672L18.5944 14.8356L16.8043 13.5666L15.6476 15.1982ZM17.4474 16.474C17.4566 16.4804 17.4501 16.4773 17.437 16.4621C17.4231 16.446 17.4091 16.4244 17.3984 16.4002L19.2286 15.5938C19.0839 15.2654 18.8539 15.0149 18.5847 14.8288L17.4474 16.474ZM17.3852 16.3689C17.3951 16.3935 17.3982 16.4062 17.3992 16.4107C17.3999 16.4143 17.4 16.4157 17.4 16.4182H19.4C19.4 16.1136 19.3325 15.8516 19.2418 15.6251L17.3852 16.3689Z" fill="#418062"/>
</svg>
