<svg width="91" height="80" viewBox="0 0 91 80" fill="none" xmlns="http://www.w3.org/2000/svg">
<path d="M56.875 65.7143C55.3024 65.7143 54.0312 66.98 54.0312 68.6V77.1143C54.0312 78.7086 55.291 80 56.875 80C58.4476 80 59.7188 78.7343 59.7188 77.1143V68.6C59.7188 67.0057 58.459 65.7143 56.875 65.7143Z" fill="#FF7180"/>
<path d="M34.125 65.7143C32.5524 65.7143 31.2812 66.98 31.2812 68.6V77.1143C31.2812 78.7086 32.5439 80 34.125 80C35.6976 80 36.9688 78.7343 36.9688 77.1143V68.6C36.9688 67.0057 35.7061 65.7143 34.125 65.7143Z" fill="#FF7180"/>
<path d="M68.25 58.0952C66.6774 58.0952 65.4062 59.361 65.4062 60.981V71.4C65.4062 72.9943 66.666 74.2857 68.25 74.2857C69.8226 74.2857 71.0938 73.02 71.0938 71.4V60.981C71.0938 59.3867 69.834 58.0952 68.25 58.0952Z" fill="#FF7180"/>
<path d="M45.5 58.0952C43.9274 58.0952 42.6562 59.361 42.6562 60.981V71.4C42.6562 72.9943 43.9189 74.2857 45.5 74.2857C47.0726 74.2857 48.3438 73.02 48.3438 71.4V60.981C48.3438 59.3867 47.084 58.0952 45.5 58.0952Z" fill="#FF7180"/>
<path d="M22.75 58.0952C21.1774 58.0952 19.9062 59.361 19.9062 60.981V71.4C19.9062 72.9943 21.1689 74.2857 22.75 74.2857C24.3226 74.2857 25.5938 73.02 25.5938 71.4V60.981C25.5938 59.3867 24.3311 58.0952 22.75 58.0952Z" fill="#FF7180"/>
<path d="M78.4477 21.5581C75.8144 14.5267 69.0576 11.4286 61.1406 11.4286C59.3178 11.4286 57.5575 11.6943 55.8911 12.1886C51.3809 4.87143 43.3188 0 34.125 0C20.1793 0 8.83269 9.30667 8.53694 23.2467C3.43241 26.2152 0 31.761 0 38.0952C0 47.5581 7.64116 55.2381 17.0625 55.2381H73.9375C83.356 55.2381 91 47.5438 91 38.0952C91 30.1952 85.6822 23.5438 78.4477 21.5581Z" fill="#FF7180"/>
</svg>
